<svg version="1.1" id="Layer_1" xmlns="http://www.w3.org/2000/svg" xmlns:xlink="http://www.w3.org/1999/xlink" viewBox="0 0 392 360" xml:space="preserve">
<g>
  <defs>
    <rect id="SVGID_1_" y="0.157" width="392" height="360"/>
  </defs>
  <clipPath id="SVGID_2_">
    <use xlink:href="#SVGID_1_"  overflow="visible"/>
  </clipPath>
  <path clip-path="url(#SVGID_2_)" fill="#535353" d="M36.746,358.957h318.508c20.262,0,36.746-16.484,36.746-36.746v-221.16
			c0-20.262-16.48-36.746-36.746-36.746h-70.738V36.746C284.516,16.485,268.031,0,247.77,0H144.23
			c-20.261,0-36.746,16.485-36.746,36.746v27.559H36.746C16.484,64.305,0,80.789,0,101.051v221.16
			C0,342.473,16.484,358.957,36.746,358.957L36.746,358.957z M355.254,334.461H36.746c-6.758,0-12.25-5.492-12.25-12.25V182.879
			h47.152v23.473h24.497v-23.473h199.71v23.473h24.496v-23.473h47.152v139.332C367.504,328.969,362.012,334.461,355.254,334.461
			L355.254,334.461z M131.98,36.746c0-6.754,5.493-12.25,12.25-12.25h103.54c6.758,0,12.25,5.496,12.25,12.25v27.559H131.98V36.746z
			 M36.746,88.801h318.508c6.758,0,12.25,5.496,12.25,12.25v57.332h-47.152v-23.469h-24.496v23.469H96.145v-23.469H71.648v23.469
			H24.496v-57.332C24.496,94.297,29.988,88.801,36.746,88.801L36.746,88.801z M36.746,88.801"/>
</g>
</svg> 