<svg version="1.1" id="Layer_1" xmlns="http://www.w3.org/2000/svg" xmlns:xlink="http://www.w3.org/1999/xlink" viewBox="0 0 25.129 25.133" xml:space="preserve">
<g>
  <path fill="#949494" d="M23,5.574l-0.375,0.122l-2.004,0.175l-0.563,0.903l-0.41-0.129l-1.594-1.438L17.82,4.461l-0.309-0.797
		l-1-0.898l-1.184-0.231l-0.027,0.539l1.16,1.129l0.566,0.668l-0.637,0.332l-0.52-0.152l-0.777-0.324l0.027-0.625l-1.02-0.418
		l-0.34,1.472l-1.028,0.231l0.102,0.824l1.34,0.258l0.23-1.313l1.105,0.161l0.512,0.3h0.824l0.566,1.129l1.492,1.52l-0.109,0.59
		l-1.203-0.157l-2.086,1.055l-1.5,1.797l-0.195,0.797h-0.539l-1-0.461l-0.976,0.461l0.242,1.027l0.426-0.488l0.746-0.023
		l-0.055,0.926l0.618,0.18l0.617,0.691l1.008-0.281l1.152,0.18l1.336,0.359l0.668,0.078l1.129,1.285l2.184,1.285l-1.41,2.695
		l-1.492,0.695l-0.566,1.539l-2.156,1.441l-0.23,0.832c5.516-1.328,9.617-6.281,9.617-12.203C25.129,9.981,24.344,7.571,23,5.574
		L23,5.574z M23,5.574"/>
  <path fill="#949494" d="M14.008,19.133l-0.914-1.695l0.84-1.75l-0.84-0.254l-0.942-0.945l-2.09-0.469l-0.695-1.453v0.863H9.062
		l-1.8-2.442V8.981L5.941,6.836L3.844,7.211h-1.41L1.723,6.742l0.906-0.714L1.727,6.235C0.637,8.094,0,10.254,0,12.566
		c0,6.938,5.625,12.566,12.562,12.566c0.536,0,1.059-0.047,1.579-0.109L14.008,23.5c0,0,0.578-2.262,0.578-2.336
		C14.586,21.086,14.008,19.133,14.008,19.133L14.008,19.133z M14.008,19.133"/>
  <path fill="#949494" d="M4.668,4.051l2.234-0.309L7.93,3.176l1.16,0.336l1.848-0.106L11.57,2.41l0.926,0.153l2.242-0.207
		l0.617-0.684L16.23,1.09l1.23,0.184l0.453-0.067C16.289,0.442,14.48,0,12.562,0C8.664,0,5.176,1.778,2.875,4.571h0.004L4.668,4.051
		z M13.094,1.25l1.285-0.707l0.824,0.477l-1.195,0.906l-1.137,0.117l-0.512-0.336L13.094,1.25z M9.293,1.352L9.859,1.59l0.743-0.238
		l0.402,0.703L9.293,2.504L8.469,2.02C8.469,2.02,9.273,1.504,9.293,1.352L9.293,1.352z M9.293,1.352"/>
</g>
</svg> 