<svg version="1.1" id="notification-bell" xmlns="http://www.w3.org/2000/svg" xmlns:xlink="http://www.w3.org/1999/xlink" viewBox="22 0 612 656" xml:space="preserve">

    <path fill="#5f5f5f" d="M546.429,393.43V218.572C546.429,97.854,448.574,0,327.857,0C207.14,0,109.286,97.854,109.286,218.572V393.43
				L21.857,568.286h198.922c10.12,49.878,54.206,87.429,107.079,87.429c52.871,0,96.958-37.551,107.077-87.429h198.923
				L546.429,393.43z M327.857,612c-28.502,0-52.522-18.294-61.55-43.714h123.121C380.38,593.706,356.359,612,327.857,612z
				 M87.429,524.571L153,393.43V218.572c0-96.565,78.292-174.857,174.857-174.857c96.563,0,174.856,78.292,174.856,174.857V393.43
				l65.571,131.143L87.429,524.571L87.429,524.571z"/>

</svg> 