<svg xmlns="http://www.w3.org/2000/svg" xmlns:xlink="http://www.w3.org/1999/xlink" viewBox="0 0 19 16" xml:space="preserve" fill="#ffffff">
  <g>
    <path d="M3.086,7.356l0.715,2.672h1.058l1.332-4.153H5.105l-0.789,2.72l-0.695-2.72H2.562l-0.718,2.72l-0.778-2.72H0l1.312,4.153
		h1.071L3.086,7.356z M3.086,7.356"/>
    <path d="M9.844,5.875H8.785L8.07,8.595l-0.781-2.72H6.223l1.316,4.153h1.066l0.704-2.672l0.718,2.672h1.055l1.336-4.153h-1.082
		l-0.797,2.72L9.844,5.875z M9.844,5.875"/>
    <g>
      <defs>
        <rect id="SVGID_1_" y="0.002" width="19" height="16"/>
      </defs>
      <clipPath id="SVGID_2_">
        <use xlink:href="#SVGID_1_"  overflow="visible"/>
      </clipPath>
      <path clip-path="url(#SVGID_2_)" d="M17.559,5.875l-0.797,2.72l-0.691-2.72h-1.063l-0.715,2.72l-0.777-2.72h-1.07l1.316,4.153
			h1.07l0.699-2.672l0.719,2.672h1.059l1.332-4.153H17.559z M17.559,5.875"/>
      <path clip-path="url(#SVGID_2_)" d="M9.32,0C6.109,0,3.348,2,2.078,4.629h14.483C15.293,2,12.531,0,9.32,0L9.32,0z
			 M9.32,0"/>
    </g>
    <path d="M9.32,16c3.211,0,5.969-1.894,7.242-4.625H2.078C3.352,14.095,6.109,16,9.32,16L9.32,16z M9.32,16"/>
  </g>
</svg>
