<svg xmlns="http://www.w3.org/2000/svg" xmlns:xlink="http://www.w3.org/1999/xlink" viewBox="0 10 200 180" xml:space="preserve" fill="#616161">
  <g>
    <g>
      <defs>
        <rect id="SVGID_1_" x="402.768" y="-185.04" width="188.385" height="185.04"/>
      </defs>
      <clipPath id="SVGID_2_">
        <use xlink:href="#SVGID_1_"  overflow="visible"/>
      </clipPath>
      <path clip-path="url(#SVGID_2_)" d="M549.277-164.741v-20.135h-8.018v20.135h-38.105v-20.135h-8.018v20.135h-38.103v-20.135
			h-8.019v20.135h-46.248v164.28h188.424v-164.28H549.277z M449.016-156.723v11.859h8.019v-11.859h38.103v11.859h8.018v-11.859
			h38.105v11.859h8.018v-11.859h33.896v29.81H410.785v-29.81H449.016z M410.785-8.48v-110.416h172.389V-8.48H410.785z M410.785-8.48
			"/>
    </g>
    <rect x="472.855" y="-103.231" width="8.02" height="15.858"/>
    <rect x="513.084" y="-103.231" width="8.018" height="15.858"/>
    <rect x="553.312" y="-103.231" width="8.018" height="15.858"/>
    <rect x="432.629" y="-70.929" width="8.018" height="15.86"/>
    <rect x="472.855" y="-70.929" width="8.02" height="15.86"/>
    <rect x="513.084" y="-70.929" width="8.018" height="15.86"/>
    <rect x="553.312" y="-70.929" width="8.018" height="15.86"/>
    <rect x="432.629" y="-38.622" width="8.018" height="15.856"/>
    <rect x="472.855" y="-38.622" width="8.02" height="15.856"/>
    <rect x="513.084" y="-38.622" width="8.018" height="15.856"/>
  </g>
  <g>
    <path fill-rule="evenodd" clip-rule="evenodd" d="M10.073,96.328c0.289-2.672,0.534-5.351,0.873-8.016
		c1.956-15.42,7.691-29.322,16.872-41.829c1.141-1.553,2.346-3.059,3.602-4.69c-3.316-3.476-6.602-6.922-9.904-10.384
		c8.726,0,17.346,0,26.114,0c-0.255,8.846-0.502,17.436-0.763,26.474c-3.455-3.589-6.635-6.893-9.817-10.199
		c-18.234,20.378-27.116,56.518-10.361,89.623c17.705,34.986,58.083,52.598,95.825,41.85c37.959-10.81,62.982-46.977,59.46-86.25
		c-1.896-21.157-10.671-39.117-26.33-53.511c-15.622-14.359-34.262-21.314-55.606-21.705c0-2.592,0-5.123,0-7.654
		c1.225,0,2.448,0,3.673,0c0.292,0.075,0.577,0.184,0.874,0.222c4.59,0.571,9.253,0.796,13.762,1.753
		c22.037,4.682,39.951,16.04,53.569,33.991c9.476,12.489,15.191,26.586,17.191,42.156c0.361,2.817,0.6,5.65,0.895,8.476
		c0,2.244,0,4.487,0,6.731c-0.094,0.698-0.192,1.395-0.282,2.093c-0.548,4.286-0.786,8.638-1.688,12.847
		c-4.837,22.588-16.592,40.807-35.217,54.474c-12.202,8.952-25.891,14.366-40.922,16.287c-2.822,0.361-5.659,0.603-8.489,0.897
		c-2.243,0-4.486,0-6.73,0c-0.702-0.094-1.404-0.192-2.107-0.283c-4.285-0.548-8.635-0.791-12.844-1.69
		c-21.974-4.688-39.857-15.986-53.467-33.871c-9.527-12.518-15.274-26.65-17.288-42.271c-0.35-2.72-0.596-5.45-0.891-8.176
		C10.073,101.224,10.073,98.775,10.073,96.328z"/>
    <path fill-rule="evenodd" clip-rule="evenodd" d="M45.801,104.928c0-2.649,0-5.035,0-7.574c13.049,0,26.028,0,39.088,0
		c0.767-3.114,1.91-5.978,4.287-8.011c1.675-1.434,3.595-2.656,5.579-3.625c1.095-0.535,1.494-0.967,1.49-2.175
		c-0.039-15.96-0.027-31.92-0.027-47.881c0-0.654,0-1.308,0-2.205c2.409,0,4.679-0.023,6.947,0.036
		c0.234,0.006,0.568,0.478,0.653,0.789c0.113,0.429,0.036,0.91,0.036,1.369c0,15.96,0.013,31.92-0.025,47.881
		c-0.004,1.192,0.295,1.722,1.496,2.154c7.188,2.586,11.286,10.195,9.652,17.677c-1.592,7.288-8.617,12.567-16.146,11.877
		c-5.883-0.539-10.189-3.611-12.701-8.984c-0.496-1.062-1.034-1.358-2.148-1.355c-12.085,0.043-24.17,0.027-36.256,0.027
		C47.125,104.928,46.523,104.928,45.801,104.928z M100.017,107.653c4.211,0.009,7.684-3.466,7.674-7.677
		c-0.009-4.146-3.427-7.596-7.562-7.632c-4.236-0.036-7.725,3.385-7.747,7.598C92.36,104.164,95.808,107.646,100.017,107.653z"/>
  </g>
</svg>
