<svg xmlns="http://www.w3.org/2000/svg" xmlns:xlink="http://www.w3.org/1999/xlink" viewBox="0 26 200 150" fill="#616161" xml:space="preserve">
<g>
	<path d="M144.734,40.078h-12.492V28.54c0-1.399-1.126-2.54-2.537-2.54c-1.399,0-2.526,1.141-2.526,2.54v11.538H70.377V28.54
		c0-1.399-1.125-2.54-2.535-2.54c-1.4,0-2.525,1.141-2.525,2.54v11.538H52.465c-19.3,0-34.999,15.71-34.999,35.013v64.918
		c0,19.301,15.698,35.011,34.999,35.011h92.27c19.301,0,34.998-15.71,34.998-35.011V75.09
		C179.732,55.788,164.035,40.078,144.734,40.078L144.734,40.078z M22.544,75.09c0-16.503,13.418-29.938,29.921-29.938h12.838v9.559
		c0,1.397,1.139,2.526,2.54,2.526c1.397,0,2.535-1.128,2.535-2.526v-9.559h56.79v9.559c0,1.397,1.139,2.526,2.538,2.526
		c1.411,0,2.537-1.128,2.537-2.526v-9.559h12.492c16.503,0,29.935,13.436,29.935,29.938v9.01H22.544V75.09z M22.544,140.009V89.165
		H96.24c-0.098,0.285-0.172,0.569-0.172,0.877v79.901H52.465C35.962,169.943,22.544,156.512,22.544,140.009L22.544,140.009z
		 M174.669,140.009c0,16.503-13.432,29.935-29.935,29.935h-43.604V90.042c0-0.308-0.074-0.593-0.173-0.877h73.711V140.009z
		 M174.669,140.009"/>
	<path d="M61.006,104.602c-9.085,0-16.204,10.027-16.204,22.829c0,12.801,7.119,22.829,16.204,22.829
		c9.087,0,16.208-10.028,16.208-22.829C77.214,114.629,70.093,104.602,61.006,104.602L61.006,104.602z M61.006,145.195
		c-6.028,0-11.126-8.133-11.126-17.765s5.099-17.753,11.126-17.753c6.044,0,11.144,8.133,11.144,17.753
		C72.149,137.063,67.05,145.195,61.006,145.195L61.006,145.195z M61.006,145.195"/>
	<path d="M136.191,150.26c9.088,0,16.206-10.028,16.206-22.829c0-12.802-7.118-22.829-16.206-22.829
		c-9.087,0-16.205,10.027-16.205,22.829C119.986,140.231,127.104,150.26,136.191,150.26L136.191,150.26z M136.191,109.665
		c6.042,0,11.13,8.134,11.13,17.766s-5.088,17.765-11.13,17.765c-6.041,0-11.142-8.133-11.142-17.765
		C125.063,117.799,130.15,109.665,136.191,109.665L136.191,109.665z M136.191,109.665"/>
</g>
</svg>
