<svg xmlns="http://www.w3.org/2000/svg" xmlns:xlink="http://www.w3.org/1999/xlink" viewBox="0 8 200 185" xml:space="preserve" fill="#616161">
  <g>
    <g>
      <defs>
        <rect id="SVGID_1_" x="5.767" y="7.96" width="188.385" height="185.04"/>
      </defs>
      <clipPath id="SVGID_2_">
        <use xlink:href="#SVGID_1_"  overflow="visible"/>
      </clipPath>
      <path clip-path="url(#SVGID_2_)" d="M152.277,28.259V8.124h-8.018v20.135h-38.105V8.124h-8.017v20.135H60.034V8.124h-8.019v20.135
			H5.767v164.28h188.424V28.259H152.277z M52.015,36.277v11.859h8.019V36.277h38.103v11.859h8.017V36.277h38.105v11.859h8.018
			V36.277h33.896v29.81H13.785v-29.81H52.015z M13.785,184.52V74.104h172.389V184.52H13.785z M13.785,184.52"/>
    </g>
    <rect x="75.855" y="89.769" width="8.02" height="15.858"/>
    <rect x="116.084" y="89.769" width="8.018" height="15.858"/>
    <rect x="156.312" y="89.769" width="8.018" height="15.858"/>
    <rect x="35.629" y="122.071" width="8.018" height="15.86"/>
    <rect x="75.855" y="122.071" width="8.02" height="15.86"/>
    <rect x="116.084" y="122.071" width="8.018" height="15.86"/>
    <rect x="156.312" y="122.071" width="8.018" height="15.86"/>
    <rect x="35.629" y="154.378" width="8.018" height="15.856"/>
    <rect x="75.855" y="154.378" width="8.02" height="15.856"/>
    <rect x="116.084" y="154.378" width="8.018" height="15.856"/>
  </g>
</svg>
