<svg xmlns="http://www.w3.org/2000/svg" xmlns:xlink="http://www.w3.org/1999/xlink" viewBox="56.334 73.188 503.113 503.113" xml:space="preserve">
<g>
  <path d="M307.891,73.188c-138.709,0-251.556,112.847-251.556,251.556c0,138.71,112.847,251.557,251.556,251.557
		c138.71,0,251.557-112.847,251.557-251.557C559.447,186.035,446.601,73.188,307.891,73.188z M307.891,554.888
		c-126.898,0-230.136-103.238-230.136-230.137S180.993,94.614,307.891,94.614c126.898,0,230.137,103.238,230.137,230.137
		S434.789,554.888,307.891,554.888z"/>
  <path d="M393.673,329.871c-14.842,0-26.489,5.201-34.946,15.594c-8.461,10.406-12.688,25.108-12.688,44.112
		c0,19.286,4.227,34.16,12.688,44.627c8.461,10.472,20.108,15.704,34.946,15.704c14.979,0,26.735-5.271,35.262-15.809
		c8.531-10.537,12.797-25.375,12.797-44.522c0-19.003-4.266-33.706-12.797-44.112C420.412,335.068,408.655,329.871,393.673,329.871z
		 M415.831,426.04c-5.341,7.648-12.727,11.468-22.153,11.468c-9.292,0-16.608-3.819-21.949-11.468
		c-5.341-7.64-8.007-19.799-8.007-36.468c0-16.525,2.666-28.543,8.007-36.048c5.341-7.509,12.653-11.263,21.949-11.263
		s16.643,3.754,22.054,11.263c5.411,7.504,8.111,19.523,8.111,36.048C423.838,406.241,421.173,418.4,415.831,426.04z"/>
  <path d="M257.847,299.048c8.324-10.076,12.481-24.455,12.481-43.136c0-9.274-1.083-17.538-3.245-24.796
		c-2.167-7.257-5.25-13.402-9.236-18.442c-3.991-5.041-8.865-8.903-14.613-11.59c-5.752-2.687-12.212-4.034-19.384-4.034
		c-14.613,0-26.05,5.139-34.301,15.419c-8.255,10.281-12.383,24.762-12.383,43.443c0,18.681,4.123,33.06,12.383,43.136
		c8.251,10.076,19.688,15.121,34.301,15.121C238.189,314.168,249.528,309.128,257.847,299.048z M202.132,291.087
		c-5.275-7.321-7.914-19.048-7.914-35.175c0-16.259,2.639-28.083,7.914-35.478c5.279-7.39,12.515-11.086,21.717-11.086
		c9.065,0,16.204,3.697,21.415,11.086c5.206,7.395,7.816,19.219,7.816,35.478c0,16.127-2.61,27.854-7.816,35.175
		c-5.211,7.326-12.349,10.984-21.415,10.984C214.647,302.071,207.407,298.413,202.132,291.087z"/>
  <polygon points="364.159,200.489 231.155,449.007 251.036,449.007 384.04,200.489 	"/>
</g>
</svg> 